<?xml version="1.0" encoding="UTF-8"?>
<svg width="943px" height="181px" viewBox="0 0 943 181" version="1.1" xmlns="http://www.w3.org/2000/svg" xmlns:xlink="http://www.w3.org/1999/xlink">
    <!-- Generator: Sketch 49.3 (51167) - http://www.bohemiancoding.com/sketch -->
    <title>logo</title>
    <desc>Created with Sketch.</desc>
    <defs/>
    <g id="logo" stroke="none" stroke-width="1" fill="none" fill-rule="evenodd">
        <g id="Group-2" transform="translate(62.000000, 45.000000)">
            <g id="Group" transform="translate(0.000000, 7.000000)" stroke="#60BFAB" stroke-linecap="square" stroke-width="35">
                <path d="M40,0 L40,80" id="Line"/>
                <path d="M80,40 L0,40" id="Line"/>
            </g>
            <path d="M135.436,96 L135.436,2.112 L158.62,2.112 L173.74,43.872 C174.700005,46.6560139 175.611996,49.5119854 176.476,52.44 C177.340004,55.3680146 178.251995,58.2719856 179.212,61.152 L179.788,61.152 C180.748005,58.2719856 181.635996,55.3680146 182.452,52.44 C183.268004,49.5119854 184.155995,46.6560139 185.116,43.872 L199.948,2.112 L222.988,2.112 L222.988,96 L203.692,96 L203.692,61.584 C203.692,59.2799885 203.787999,56.7360139 203.98,53.952 C204.172001,51.1679861 204.411999,48.3600142 204.7,45.528 C204.988001,42.6959858 205.275999,39.9120137 205.564,37.176 C205.852001,34.4399863 206.139999,31.9200115 206.428,29.616 L205.852,29.616 L198.22,51.936 L184.828,87.792 L173.164,87.792 L159.772,51.936 L152.284,29.616 L151.708,29.616 C151.996001,31.9200115 152.283999,34.4399863 152.572,37.176 C152.860001,39.9120137 153.147999,42.6959858 153.436,45.528 C153.724001,48.3600142 153.963999,51.1679861 154.156,53.952 C154.348001,56.7360139 154.444,59.2799885 154.444,61.584 L154.444,96 L135.436,96 Z M284.332,97.728 C278.37997,97.728 272.764026,96.6960103 267.484,94.632 C262.203974,92.5679897 257.57202,89.5200202 253.588,85.488 C249.60398,81.4559798 246.460012,76.44003 244.156,70.44 C241.851988,64.43997 240.7,57.5040394 240.7,49.632 C240.7,41.8559611 241.899988,34.9200305 244.3,28.824 C246.700012,22.7279695 249.91598,17.5680211 253.948,13.344 C257.98002,9.11997888 262.683973,5.90401104 268.06,3.696 C273.436027,1.48798896 279.09997,0.384 285.052,0.384 C291.10003,0.384 296.523976,1.60798776 301.324,4.056 C306.124024,6.50401224 310.107984,9.35998368 313.276,12.624 L302.044,26.16 C299.643988,23.951989 297.124013,22.152007 294.484,20.76 C291.843987,19.367993 288.844017,18.672 285.484,18.672 C282.315984,18.672 279.316014,19.367993 276.484,20.76 C273.651986,22.152007 271.20401,24.143987 269.14,26.736 C267.07599,29.328013 265.444006,32.4959813 264.244,36.24 C263.043994,39.9840187 262.444,44.2079765 262.444,48.912 C262.444,58.6080485 264.507979,66.1199734 268.636,71.448 C272.764021,76.7760266 278.283965,79.44 285.196,79.44 C289.036019,79.44 292.467985,78.6000084 295.492,76.92 C298.516015,75.2399916 301.179988,73.1520125 303.484,70.656 L314.716,83.904 C306.843961,93.1200461 296.716062,97.728 284.332,97.728 Z M339.484,97.728 C335.835982,97.728 332.788012,96.4560127 330.34,93.912 C327.891988,91.3679873 326.668,88.2240187 326.668,84.48 C326.668,80.6399808 327.891988,77.4480127 330.34,74.904 C332.788012,72.3599873 335.835982,71.088 339.484,71.088 C343.132018,71.088 346.179988,72.3599873 348.628,74.904 C351.076012,77.4480127 352.3,80.6399808 352.3,84.48 C352.3,88.2240187 351.076012,91.3679873 348.628,93.912 C346.179988,96.4560127 343.132018,97.728 339.484,97.728 Z M413.644,97.728 C407.211968,97.728 401.188028,96.6960103 395.572,94.632 C389.955972,92.5679897 385.084021,89.5200202 380.956,85.488 C376.827979,81.4559798 373.588012,76.44003 371.236,70.44 C368.883988,64.43997 367.708,57.5040394 367.708,49.632 C367.708,41.8559611 368.907988,34.9200305 371.308,28.824 C373.708012,22.7279695 376.995979,17.5680211 381.172,13.344 C385.348021,9.11997888 390.219972,5.90401104 395.788,3.696 C401.356028,1.48798896 407.259969,0.384 413.5,0.384 C420.316034,0.384 426.171976,1.63198752 431.068,4.128 C435.964024,6.62401248 439.947985,9.45598416 443.02,12.624 L431.932,26.16 C429.531988,24.0479894 426.988013,22.2720072 424.3,20.832 C421.611987,19.3919928 418.25202,18.672 414.22,18.672 C410.571982,18.672 407.236015,19.367993 404.212,20.76 C401.187985,22.152007 398.572011,24.143987 396.364,26.736 C394.155989,29.328013 392.452006,32.4959813 391.252,36.24 C390.051994,39.9840187 389.452,44.2079765 389.452,48.912 C389.452,58.6080485 391.635978,66.1199734 396.004,71.448 C400.372022,76.7760266 406.971956,79.44 415.804,79.44 C417.72401,79.44 419.595991,79.2000024 421.42,78.72 C423.244009,78.2399976 424.731994,77.5200048 425.884,76.56 L425.884,60.432 L410.332,60.432 L410.332,43.152 L444.604,43.152 L444.604,86.352 C441.339984,89.5200158 437.020027,92.207989 431.644,94.416 C426.267973,96.624011 420.268033,97.728 413.644,97.728 Z M502.204,97.728 C495.867968,97.728 490.084026,96.6000113 484.852,94.344 C479.619974,92.0879887 475.132019,88.8480211 471.388,84.624 C467.643981,80.3999789 464.74001,75.2640302 462.676,69.216 C460.61199,63.1679698 459.58,56.3040384 459.58,48.624 C459.58,40.9439616 460.61199,34.10403 462.676,28.104 C464.74001,22.10397 467.643981,17.0640204 471.388,12.984 C475.132019,8.9039796 479.619974,5.7840108 484.852,3.624 C490.084026,1.4639892 495.867968,0.384 502.204,0.384 C508.540032,0.384 514.323974,1.4639892 519.556,3.624 C524.788026,5.7840108 529.275981,8.92797936 533.02,13.056 C536.764019,17.1840206 539.66799,22.24797 541.732,28.248 C543.79601,34.24803 544.828,41.0399621 544.828,48.624 C544.828,56.3040384 543.79601,63.1679698 541.732,69.216 C539.66799,75.2640302 536.764019,80.3999789 533.02,84.624 C529.275981,88.8480211 524.788026,92.0879887 519.556,94.344 C514.323974,96.6000113 508.540032,97.728 502.204,97.728 Z M502.204,79.44 C508.636032,79.44 513.723981,76.6800276 517.468,71.16 C521.212019,65.6399724 523.084,58.1280475 523.084,48.624 C523.084,39.215953 521.212019,31.8720264 517.468,26.592 C513.723981,21.3119736 508.636032,18.672 502.204,18.672 C495.771968,18.672 490.684019,21.3119736 486.94,26.592 C483.195981,31.8720264 481.324,39.215953 481.324,48.624 C481.324,58.1280475 483.195981,65.6399724 486.94,71.16 C490.684019,76.6800276 495.771968,79.44 502.204,79.44 Z M578.812,96 L550.444,2.112 L572.908,2.112 L584.14,45.888 C585.580007,51.0720259 586.851994,56.0879758 587.956,60.936 C589.060006,65.7840242 590.331993,70.7999741 591.772,75.984 L592.348,75.984 C593.692007,70.7999741 594.939994,65.7840242 596.092,60.936 C597.244006,56.0879758 598.491993,51.0720259 599.836,45.888 L610.924,2.112 L632.524,2.112 L604.3,96 L578.812,96 Z M653.116,97.728 C649.467982,97.728 646.420012,96.4560127 643.972,93.912 C641.523988,91.3679873 640.3,88.2240187 640.3,84.48 C640.3,80.6399808 641.523988,77.4480127 643.972,74.904 C646.420012,72.3599873 649.467982,71.088 653.116,71.088 C656.764018,71.088 659.811988,72.3599873 662.26,74.904 C664.708012,77.4480127 665.932,80.6399808 665.932,84.48 C665.932,88.2240187 664.708012,91.3679873 662.26,93.912 C659.811988,96.4560127 656.764018,97.728 653.116,97.728 Z M714.46,97.728 C708.315969,97.728 702.19603,96.6000113 696.1,94.344 C690.00397,92.0879887 684.556024,88.7040226 679.756,84.192 L691.852,69.648 C695.212017,72.5280144 698.93198,74.8799909 703.012,76.704 C707.09202,78.5280091 711.09998,79.44 715.036,79.44 C719.452022,79.44 722.739989,78.6240082 724.9,76.992 C727.060011,75.3599918 728.14,73.1520139 728.14,70.368 C728.14,68.9279928 727.828003,67.6800053 727.204,66.624 C726.579997,65.5679947 725.668006,64.6320041 724.468,63.816 C723.267994,62.9999959 721.828008,62.2320036 720.148,61.512 L714.604,59.136 L702.364,53.952 C699.963988,52.9919952 697.636011,51.7440077 695.38,50.208 C693.123989,48.6719923 691.108009,46.8720103 689.332,44.808 C687.555991,42.7439897 686.140005,40.3440137 685.084,37.608 C684.027995,34.8719863 683.5,31.7760173 683.5,28.32 C683.5,24.4799808 684.315992,20.856017 685.948,17.448 C687.580008,14.039983 689.883985,11.0640127 692.86,8.52 C695.836015,5.97598728 699.36398,3.9840072 703.444,2.544 C707.52402,1.1039928 712.011976,0.384 716.908,0.384 C722.380027,0.384 727.779973,1.43998944 733.108,3.552 C738.436027,5.66401056 743.11598,8.73597984 747.148,12.768 L736.348,26.16 C733.275985,23.759988 730.204015,21.9120065 727.132,20.616 C724.059985,19.3199935 720.652019,18.672 716.908,18.672 C713.259982,18.672 710.356011,19.4159926 708.196,20.904 C706.035989,22.3920074 704.956,24.4799866 704.956,27.168 C704.956,28.6080072 705.315996,29.831995 706.036,30.84 C706.756004,31.848005 707.763994,32.7599959 709.06,33.576 C710.356006,34.3920041 711.867991,35.1599964 713.596,35.88 C715.324009,36.6000036 717.19599,37.3919957 719.212,38.256 L731.308,43.152 C737.068029,45.4560115 741.603983,48.6239798 744.916,52.656 C748.228017,56.6880202 749.884,62.0159669 749.884,68.64 C749.884,72.5760197 749.092008,76.2959825 747.508,79.8 C745.923992,83.3040175 743.620015,86.3759868 740.596,89.016 C737.571985,91.6560132 733.852022,93.7679921 729.436,95.352 C725.019978,96.9360079 720.028028,97.728 714.46,97.728 Z M807.34,97.728 C800.907968,97.728 794.884028,96.6960103 789.268,94.632 C783.651972,92.5679897 778.780021,89.5200202 774.652,85.488 C770.523979,81.4559798 767.284012,76.44003 764.932,70.44 C762.579988,64.43997 761.404,57.5040394 761.404,49.632 C761.404,41.8559611 762.603988,34.9200305 765.004,28.824 C767.404012,22.7279695 770.691979,17.5680211 774.868,13.344 C779.044021,9.11997888 783.915972,5.90401104 789.484,3.696 C795.052028,1.48798896 800.955969,0.384 807.196,0.384 C814.012034,0.384 819.867976,1.63198752 824.764,4.128 C829.660024,6.62401248 833.643985,9.45598416 836.716,12.624 L825.628,26.16 C823.227988,24.0479894 820.684013,22.2720072 817.996,20.832 C815.307987,19.3919928 811.94802,18.672 807.916,18.672 C804.267982,18.672 800.932015,19.367993 797.908,20.76 C794.883985,22.152007 792.268011,24.143987 790.06,26.736 C787.851989,29.328013 786.148006,32.4959813 784.948,36.24 C783.747994,39.9840187 783.148,44.2079765 783.148,48.912 C783.148,58.6080485 785.331978,66.1199734 789.7,71.448 C794.068022,76.7760266 800.667956,79.44 809.5,79.44 C811.42001,79.44 813.291991,79.2000024 815.116,78.72 C816.940009,78.2399976 818.427994,77.5200048 819.58,76.56 L819.58,60.432 L804.028,60.432 L804.028,43.152 L838.3,43.152 L838.3,86.352 C835.035984,89.5200158 830.716027,92.207989 825.34,94.416 C819.963973,96.624011 813.964033,97.728 807.34,97.728 Z" id="MC.GOV.SG" fill="#000000"/>
        </g>
    </g>
</svg>