<?xml version="1.0" encoding="UTF-8"?>
<svg width="300px" height="300px" viewBox="0 0 300 300" version="1.1" xmlns="http://www.w3.org/2000/svg" xmlns:xlink="http://www.w3.org/1999/xlink">
    <!-- Generator: Sketch 49.3 (51167) - http://www.bohemiancoding.com/sketch -->
    <title>step1_see_doc</title>
    <desc>Created with Sketch.</desc>
    <defs></defs>
    <g id="step1_see_doc" stroke="none" stroke-width="1" fill="none" fill-rule="evenodd" stroke-linecap="round" stroke-linejoin="round">
        <g id="Doctor" transform="translate(54.000000, 54.000000)" stroke="#000000" stroke-width="5">
            <path d="M74.638523,125.166667 C82.4288211,130.511286 90.7108508,133.5 96.0041667,133.5 C101.297482,133.5 109.579512,130.511286 117.36981,125.166667 L117.4275,125.166667 C154.544167,131.45 191.835833,129.975 191.835833,164.708333 L191.835833,191.833333 L0.169166667,191.833333 L0.169166667,164.708333 C0.169166667,129.983333 38.4025,131.233333 74.2108333,125.166667 L74.638523,125.166667 Z" id="Combined-Shape" fill="#60BFAB"></path>
            <path d="M71.0041667,75.1833333 C71.0041667,70.575 74.7291667,71.0166667 79.3375,71.0166667 C83.9458333,71.0166667 87.6708333,70.575 87.6708333,75.1833333" id="Stroke-1238"></path>
            <path d="M104.3375,75.1833333 C104.3375,70.575 108.0625,71.0166667 112.670833,71.0166667 C117.279167,71.0166667 121.004167,70.575 121.004167,75.1833333" id="Stroke-1239"></path>
            <path d="M74.2108333,125.166667 C38.4025,131.233333 0.169166667,129.983333 0.169166667,164.708333 L0.169166667,191.833333 L191.835833,191.833333 L191.835833,164.708333 C191.835833,129.975 154.544167,131.45 117.4275,125.166667" id="Stroke-1240"></path>
            <path d="M137.670833,91.8333333 C150.170833,91.8333333 150.170833,66.8333333 137.670833,66.8333333 L133.5375,46 C100.204167,46 100.220833,33.5 96.0541667,29.3333333 C91.8875,33.5 91.8625,46 58.5291667,46 L54.3375,66.8333333 C41.8375,66.8333333 41.8375,91.8333333 54.3375,91.8333333 C54.3375,116.833333 83.5041667,133.5 96.0041667,133.5 C108.504167,133.5 137.670833,116.833333 137.670833,91.8333333 Z" id="Stroke-1241"></path>
            <path d="M146.004167,73.1808333 L150.2375,41.8308333 C150.2375,41.8308333 154.404167,0.164166667 96.0708333,0.164166667 C37.7375,0.164166667 41.9041667,41.8308333 41.9041667,41.8308333 L46.0041667,73.0891667" id="Stroke-1242"></path>
            <path d="M71.0041667,162.666667 C71.0041667,169.566667 65.4041667,175.166667 58.5041667,175.166667 C51.6041667,175.166667 46.0041667,169.566667 46.0041667,162.666667 C46.0041667,155.766667 51.6041667,150.166667 58.5041667,150.166667 C65.4041667,150.166667 71.0041667,155.766667 71.0041667,162.666667 L71.0041667,162.666667 Z" id="Stroke-1243"></path>
            <path d="M58.5041667,127.494167 L58.5041667,150.169167" id="Stroke-1244"></path>
            <path d="M137.7925,128.129167 L137.6675,141.8375" id="Stroke-1245"></path>
            <path d="M125.170833,175.166667 C121.004167,175.166667 116.8375,171 116.8375,167.416667 L116.8375,154.091667 C116.8375,145.883333 121.004167,141.833333 137.670833,141.833333" id="Stroke-1246"></path>
            <path d="M150.170833,175.166667 C154.3375,175.166667 158.504167,171 158.504167,167.416667 L158.504167,154.091667 C158.504167,145.883333 154.3375,141.833333 137.670833,141.833333" id="Stroke-1247"></path>
            <path d="M91.8375,133.5 L91.8375,191.833333" id="Stroke-1248"></path>
        </g>
    </g>
</svg>