<?xml version="1.0" encoding="UTF-8"?>
<svg width="300px" height="300px" viewBox="0 0 300 300" version="1.1" xmlns="http://www.w3.org/2000/svg" xmlns:xlink="http://www.w3.org/1999/xlink">
    <!-- Generator: Sketch 49.3 (51167) - http://www.bohemiancoding.com/sketch -->
    <title>step2_sms_link</title>
    <desc>Created with Sketch.</desc>
    <defs></defs>
    <g id="step2_sms_link" stroke="none" stroke-width="1" fill="none" fill-rule="evenodd" stroke-linejoin="round">
        <g id="send-sms" transform="translate(54.000000, 54.000000)" stroke="#000000" stroke-width="5">
            <path d="M91.8333333,96.8333333 L91.8333333,175.166667 C91.8333333,184.366667 84.3666667,191.833333 75.1666667,191.833333 L16.8333333,191.833333 C7.63333333,191.833333 0.166666667,184.366667 0.166666667,175.166667 L0.166666667,50.1666667 C0.166666667,40.9666667 7.63333333,33.5 16.8333333,33.5 L51.8333333,33.5" id="Stroke-360" stroke-linecap="round"></path>
            <path d="M51.8333333,66.8333333 L0.166666667,66.8333333" id="Stroke-361" stroke-linecap="round"></path>
            <path d="M91.8333333,158.5 L0.166666667,158.5" id="Stroke-362" stroke-linecap="round"></path>
            <path d="M33.5,50.1666667 L51.8333333,50.1666667" id="Stroke-363" stroke-linecap="round"></path>
            <path d="M179.333333,75.1666667 L133.5,75.1666667 L108.5,100.166667 L108.5,75.1666667 L79.3333333,75.1666667 C72.4333333,75.1666667 66.8333333,69.5666667 66.8333333,62.6666667 L66.8333333,12.6666667 C66.8333333,5.76666667 72.4333333,0.166666667 79.3333333,0.166666667 L179.333333,0.166666667 C186.233333,0.166666667 191.833333,5.76666667 191.833333,12.6666667 L191.833333,62.6666667 C191.833333,69.5666667 186.233333,75.1666667 179.333333,75.1666667 Z" id="Stroke-364" fill="#60BFAB" stroke-linecap="round"></path>
            <path d="M50.1666667,175.166667 C50.1666667,177.466667 48.3,179.333333 46,179.333333 C43.7,179.333333 41.8333333,177.466667 41.8333333,175.166667 C41.8333333,172.866667 43.7,171 46,171 C48.3,171 50.1666667,172.866667 50.1666667,175.166667 L50.1666667,175.166667 Z" id="Stroke-368"></path>
            <path d="M137.182334,40.4136231 L145.00479,32.591167 C147.885195,29.7107624 147.885195,25.037942 145.00479,22.1575374 C142.128074,19.2808209 137.455253,19.2808209 134.574849,22.1575374 L126.752393,29.9836816" id="Stroke-2682" stroke-linecap="round"></path>
            <path d="M121.979072,34.7523925 L114.160303,42.5748486 C111.279899,45.4552533 111.279899,50.1280736 114.160303,53.0084782 C117.03702,55.8851948 121.70984,55.8851948 124.590245,53.0084782 L132.412701,45.1860221" id="Stroke-2683" stroke-linecap="round"></path>
            <path d="M136.101721,31.0642944 L123.064294,44.1017212" id="Stroke-2684" stroke-linecap="round"></path>
        </g>
    </g>
</svg>