<?xml version="1.0" encoding="utf-8"?>
<!-- Generator: Adobe Illustrator 16.0.0, SVG Export Plug-In . SVG Version: 6.00 Build 0)  -->
<!DOCTYPE svg PUBLIC "-//W3C//DTD SVG 1.1//EN" "http://www.w3.org/Graphics/SVG/1.1/DTD/svg11.dtd">
<svg version="1.1" id="Layer_1" xmlns="http://www.w3.org/2000/svg" xmlns:xlink="http://www.w3.org/1999/xlink" x="0px" y="0px"
	 width="300px" height="300px" viewBox="0 0 300 300" enable-background="new 0 0 300 300" xml:space="preserve">
<title>step3_send_hr</title>
<desc>Created with Sketch.</desc>
<g>
	
		<path fill="none" stroke="#231F20" stroke-width="5.0003" stroke-linecap="round" stroke-linejoin="round" stroke-miterlimit="10" d="
		M165.249,146.555v71.052c0,10.823-8.854,19.677-19.675,19.677H91.705c-10.823,0-19.677-8.854-19.677-19.677V100.353
		c0-10.822,8.854-19.676,19.677-19.676h44.87"/>
	
		<line fill="none" stroke="#231F20" stroke-width="5.0003" stroke-linecap="round" stroke-linejoin="round" stroke-miterlimit="10" x1="72.028" y1="114.617" x2="123.925" y2="114.617"/>
	
		<line fill="none" stroke="#231F20" stroke-width="5.0003" stroke-miterlimit="10" x1="72.028" y1="203.078" x2="165.249" y2="203.078"/>
	<circle fill="#3DBCA7" stroke="#231F20" stroke-width="5.0003" stroke-miterlimit="10" cx="118.638" cy="219.016" r="5.74"/>
	
		<line fill="none" stroke="#231F20" stroke-width="5.0003" stroke-linecap="round" stroke-linejoin="round" stroke-miterlimit="10" x1="107.563" y1="99.736" x2="123.925" y2="99.736"/>
	
		<path fill="#3DBCA7" stroke="#231F20" stroke-width="5.0003" stroke-linecap="round" stroke-linejoin="round" stroke-miterlimit="10" d="
		M192.823,122.484L230,92.743L192.823,63v17.188h-22.306c-16.402,0-33.088,13.338-33.088,29.741v16.401h23.34v-6.16
		c0-8.201,1.547-14.871,9.748-14.871h22.306V122.484z"/>
</g>
</svg>
